HIERARCHY
ROOT Hips
{
  OFFSET 5.72205e-005 65.662 3.42586
  CHANNELS 6 Xposition Yposition Zposition Zrotation Xrotation Yrotation
  JOINT Chest
  {
    OFFSET 0 8.7983 -4.7612
    CHANNELS 3 Zrotation Xrotation Yrotation
    JOINT Chest2
    {
      OFFSET 0 8.0291 0.4195
      CHANNELS 3 Zrotation Xrotation Yrotation
      JOINT Chest3
      {
        OFFSET 0 9.9351 -2.2114
        CHANNELS 3 Zrotation Xrotation Yrotation
        JOINT Neck
        {
          OFFSET 0 22.3885 -0.4656
          CHANNELS 3 Zrotation Xrotation Yrotation
          JOINT Head
          {
            OFFSET -0.0001 12.643 3.4389
            CHANNELS 3 Zrotation Xrotation Yrotation
            End Site
            {
              OFFSET 0.0001 17.6655 0.5274
            }
          }
        }
        JOINT LeftCollar
        {
          OFFSET 2.2603 21.606 7.4023
          CHANNELS 3 Zrotation Xrotation Yrotation
          JOINT LeftShoulder
          {
            OFFSET 13.5163 -1.1332 -5.0146
            CHANNELS 3 Zrotation Xrotation Yrotation
            JOINT LeftElbow
            {
              OFFSET -0.0995 -28.05 -0.2431
              CHANNELS 3 Zrotation Xrotation Yrotation
              JOINT LeftWrist
              {
                OFFSET 0.0679 -23.3996 -0.1402
                CHANNELS 3 Zrotation Xrotation Yrotation
                JOINT LeftFinger1
                {
                  OFFSET 0.7932 -9.069 2.5189
                  CHANNELS 3 Zrotation Xrotation Yrotation
                  JOINT LeftFinger11
                  {
                    OFFSET -0.8272 -3.3923 0.5977
                    CHANNELS 3 Zrotation Xrotation Yrotation
                    JOINT LeftFinger12
                    {
                      OFFSET -0.5649 -2.3158 0.4082
                      CHANNELS 3 Zrotation Xrotation Yrotation
                      End Site
                      {
                        OFFSET -0.4919 -1.6479 0.2673
                      }
                    }
                  }
                }
                JOINT LeftFinger2
                {
                  OFFSET 0.9159 -9.2044 0.2193
                  CHANNELS 3 Zrotation Xrotation Yrotation
                  JOINT LeftFinger21
                  {
                    OFFSET 0.0117 -4.1944 -0.0248
                    CHANNELS 3 Zrotation Xrotation Yrotation
                    JOINT LeftFinger22
                    {
                      OFFSET 0.0071 -2.3249 -0.0142
                      CHANNELS 3 Zrotation Xrotation Yrotation
                      End Site
                      {
                        OFFSET -0.1475 -2.0882 0.0028
                      }
                    }
                  }
                }
                JOINT LeftFinger3
                {
                  OFFSET 0.6113 -8.7231 -2.0637
                  CHANNELS 3 Zrotation Xrotation Yrotation
                  JOINT LeftFinger31
                  {
                    OFFSET -0.1927 -3.8059 -0.2383
                    CHANNELS 3 Zrotation Xrotation Yrotation
                    JOINT LeftFinger32
                    {
                      OFFSET -0.1091 -2.1688 -0.1362
                      CHANNELS 3 Zrotation Xrotation Yrotation
                      End Site
                      {
                        OFFSET -0.2358 -1.9176 -0.0906
                      }
                    }
                  }
                }
                JOINT LeftFinger4
                {
                  OFFSET -0.6151 -8.0947 -3.5641
                  CHANNELS 3 Zrotation Xrotation Yrotation
                  JOINT LeftFinger41
                  {
                    OFFSET -0.4882 -2.341 -0.6462
                    CHANNELS 3 Zrotation Xrotation Yrotation
                    JOINT LeftFinger42
                    {
                      OFFSET -0.3575 -1.7167 -0.4742
                      CHANNELS 3 Zrotation Xrotation Yrotation
                      End Site
                      {
                        OFFSET -0.4187 -1.5237 -0.3496
                      }
                    }
                  }
                }
                JOINT LeftFinger0
                {
                  OFFSET -1.42 -1.8761 1.4223
                  CHANNELS 3 Zrotation Xrotation Yrotation
                  JOINT LeftFinger01
                  {
                    OFFSET -1.1471 -3.4929 2.6334
                    CHANNELS 3 Zrotation Xrotation Yrotation
                    JOINT LeftFinger02
                    {
                      OFFSET -0.823 -2.3 1.6571
                      CHANNELS 3 Zrotation Xrotation Yrotation
                      End Site
                      {
                        OFFSET -0.5822 -1.6914 1.1582
                      }
                    }
                  }
                }
              }
            }
          }
        }
        JOINT RightCollar
        {
          OFFSET -2.2603 21.606 7.4023
          CHANNELS 3 Zrotation Xrotation Yrotation
          JOINT RightShoulder
          {
            OFFSET -13.5187 -1.1334 -5.0155
            CHANNELS 3 Zrotation Xrotation Yrotation
            JOINT RightElbow
            {
              OFFSET 0.0994 -28.0499 -0.2431
              CHANNELS 3 Zrotation Xrotation Yrotation
              JOINT RightWrist
              {
                OFFSET -0.0679 -23.3996 -0.1402
                CHANNELS 3 Zrotation Xrotation Yrotation
                JOINT RightFinger1
                {
                  OFFSET -0.7932 -9.0691 2.5189
                  CHANNELS 3 Zrotation Xrotation Yrotation
                  JOINT RightFinger11
                  {
                    OFFSET 0.8272 -3.3923 0.5977
                    CHANNELS 3 Zrotation Xrotation Yrotation
                    JOINT RightFinger12
                    {
                      OFFSET 0.565 -2.3158 0.4082
                      CHANNELS 3 Zrotation Xrotation Yrotation
                      End Site
                      {
                        OFFSET 0.4919 -1.6479 0.2673
                      }
                    }
                  }
                }
                JOINT RightFinger2
                {
                  OFFSET -0.916 -9.2044 0.2193
                  CHANNELS 3 Zrotation Xrotation Yrotation
                  JOINT RightFinger21
                  {
                    OFFSET -0.0117 -4.1944 -0.0248
                    CHANNELS 3 Zrotation Xrotation Yrotation
                    JOINT RightFinger22
                    {
                      OFFSET -0.0071 -2.3249 -0.0142
                      CHANNELS 3 Zrotation Xrotation Yrotation
                      End Site
                      {
                        OFFSET 0.1475 -2.0882 0.0028
                      }
                    }
                  }
                }
                JOINT RightFinger3
                {
                  OFFSET -0.6113 -8.7231 -2.0637
                  CHANNELS 3 Zrotation Xrotation Yrotation
                  JOINT RightFinger31
                  {
                    OFFSET 0.1927 -3.8059 -0.2383
                    CHANNELS 3 Zrotation Xrotation Yrotation
                    JOINT RightFinger32
                    {
                      OFFSET 0.1091 -2.1688 -0.1362
                      CHANNELS 3 Zrotation Xrotation Yrotation
                      End Site
                      {
                        OFFSET 0.2358 -1.9176 -0.0906
                      }
                    }
                  }
                }
                JOINT RightFinger4
                {
                  OFFSET 0.6151 -8.0947 -3.564
                  CHANNELS 3 Zrotation Xrotation Yrotation
                  JOINT RightFinger41
                  {
                    OFFSET 0.4882 -2.341 -0.6462
                    CHANNELS 3 Zrotation Xrotation Yrotation
                    JOINT RightFinger42
                    {
                      OFFSET 0.3574 -1.7166 -0.4742
                      CHANNELS 3 Zrotation Xrotation Yrotation
                      End Site
                      {
                        OFFSET 0.4187 -1.5237 -0.3496
                      }
                    }
                  }
                }
                JOINT RightFinger0
                {
                  OFFSET 1.4199 -1.8761 1.4221
                  CHANNELS 3 Zrotation Xrotation Yrotation
                  JOINT RightFinger01
                  {
                    OFFSET 1.1472 -3.4929 2.6336
                    CHANNELS 3 Zrotation Xrotation Yrotation
                    JOINT RightFinger02
                    {
                      OFFSET 0.8229 -2.3 1.6571
                      CHANNELS 3 Zrotation Xrotation Yrotation
                      End Site
                      {
                        OFFSET 0.5822 -1.6914 1.1582
                      }
                    }
                  }
                }
              }
            }
          }
        }
      }
    }
  }
  JOINT RightHip
  {
    OFFSET -9.412 3.9771 -0.7758
    CHANNELS 3 Zrotation Xrotation Yrotation
    JOINT RightKnee
    {
      OFFSET -0.7531 -40.938 0
      CHANNELS 3 Zrotation Xrotation Yrotation
      JOINT RightAnkle
      {
        OFFSET 0 -40.1986 0
        CHANNELS 3 Zrotation Xrotation Yrotation
        JOINT RightToe
        {
          OFFSET 0 -4.4182 9.239
          CHANNELS 3 Zrotation Xrotation Yrotation
          End Site
          {
            OFFSET 0 0 6.1981
          }
        }
      }
    }
  }
  JOINT LeftHip
  {
    OFFSET 9.4119 3.9773 -0.7758
    CHANNELS 3 Zrotation Xrotation Yrotation
    JOINT LeftKnee
    {
      OFFSET 0.7532 -40.9383 0
      CHANNELS 3 Zrotation Xrotation Yrotation
      JOINT LeftAnkle
      {
        OFFSET 0 -40.1986 0
        CHANNELS 3 Zrotation Xrotation Yrotation
        JOINT LeftToe
        {
          OFFSET 0 -4.4182 9.239
          CHANNELS 3 Zrotation Xrotation Yrotation
          End Site
          {
            OFFSET 0 0 6.1981
          }
        }
      }
    }
  }
}
MOTION
Frames:	4
Frame Time:	0.0333333
-0.617635 53.5992 7.81964 -2.75268e-007 -7.65138 -1.06305e-007 -0.646754 2.51856 -0.205511 -1.28631 5.03925 -0.383075 -1.28632 5.03926 -0.383076 1.26286e-005 32.2289 5.5916e-006 -1.43414e-007 -23.5324 -4.18413e-007 10.6321 -7.20381 -18.155 36.3685 -5.18892 21.2268 -81.5904 -42.999 -59.2874 -11.6591 18.7153 14.2075 -3.76896e-006 -8.0378e-007 -2.85197e-006 6.40552e-008 3.17136e-006 -2.44456e-007 -3.53113e-031 -6.36111e-015 -3.18055e-015 -3.76896e-006 -8.0378e-007 -2.85197e-006 -0.012861 0.00231807 7.26247e-005 6.36111e-015 4.77083e-015 3.18055e-015 -3.76896e-006 -8.0378e-007 -2.85197e-006 -0.0160453 0.00299083 0.000854437 -6.36111e-015 1.59028e-015 -6.36111e-015 -3.76896e-006 -8.0378e-007 -2.85197e-006 -0.0125295 0.00312363 0.0028176 -3.18055e-015 0 -0 -3.76896e-006 -8.0378e-007 -2.85197e-006 6.40552e-008 3.17136e-006 -2.44456e-007 -3.53113e-031 -6.36111e-015 -3.18055e-015 -12.3219 -7.28124 11.9528 -36.1299 -7.58618 -17.0788 78.5887 -43.7348 57.3624 14.8375 16.901 -13.4732 6.36111e-015 6.36111e-015 9.54166e-015 -5.29669e-031 3.18055e-015 9.54166e-015 7.07521e-007 5.33399e-006 2.67533e-006 6.36111e-015 6.36111e-015 9.54166e-015 0.0129593 0.00231267 -7.87094e-005 4.75953e-006 3.80991e-007 5.46628e-006 6.36111e-015 6.36111e-015 9.54166e-015 0.0163526 0.00302388 -0.000860339 1.21926e-006 8.20019e-007 -1.16986e-006 6.36111e-015 6.36111e-015 9.54166e-015 0.0145432 0.0036832 -0.00325377 2.6189e-006 -8.89995e-006 1.08458e-005 6.36111e-015 6.36111e-015 9.54166e-015 -5.29669e-031 3.18055e-015 9.54166e-015 7.07521e-007 5.33399e-006 2.67533e-006 -111.984 -15.4724 -160.687 -152.546 19.1735 110.766 0.409574 -17.6224 44.3417 -7.95139e-016 4.36367e-009 -9.54166e-015 111.992 -15.4926 160.676 152.583 19.1735 -110.804 -0.403786 -17.6258 -44.3447 -6.82543e-006 1.43132e-006 -3.36068e-006 
-0.617644 53.4923 7.75536 6.91129e-008 -7.30096 2.36881e-009 -0.646052 2.30857 -0.207979 -1.28527 4.61932 -0.390345 -1.28527 4.61932 -0.390346 -2.48863e-005 32.6115 -1.20548e-005 -5.87732e-007 -23.4139 3.18597e-009 10.7001 -6.75258 -17.9445 36.1687 -5.14035 21.1716 -81.9457 -42.9192 -59.5423 -11.7483 18.9636 14.1901 -7.94236e-006 -1.59997e-005 -9.90354e-006 4.41391e-031 7.95139e-015 -3.18055e-015 3.18055e-015 4.77083e-015 -6.36111e-015 -7.94236e-006 -1.59997e-005 -9.90354e-006 -0.0128202 0.00232455 8.19504e-005 0 0 -0 -7.94236e-006 -1.59997e-005 -9.90354e-006 -0.0160698 0.00301243 0.000868362 3.18055e-015 1.59028e-015 3.18055e-015 -7.94236e-006 -1.59997e-005 -9.90354e-006 -0.0126513 0.00314419 0.00284939 -2.91568e-006 1.39331e-006 -3.62218e-007 -7.94236e-006 -1.59997e-005 -9.90354e-006 4.41391e-031 7.95139e-015 -3.18055e-015 3.18055e-015 4.77083e-015 -6.36111e-015 -12.4025 -6.84208 11.7242 -35.921 -7.54931 -17.0073 78.905 -43.6605 57.5933 14.9819 17.139 -13.4353 -3.18055e-015 -7.95139e-015 -0 -3.18055e-015 6.36111e-015 -0 -6.36111e-015 7.95139e-015 -0 -3.18055e-015 -7.95139e-015 -0 0.0129965 0.0023078 -8.23114e-005 -3.18055e-015 3.18055e-015 3.18055e-015 -3.18055e-015 -7.95139e-015 -0 0.0163399 0.00300975 -0.000864386 7.06225e-031 -6.36111e-015 6.36111e-015 -3.18055e-015 -7.95139e-015 -0 0.0145218 0.00364091 -0.00323963 3.18055e-015 0 1.27222e-014 -3.18055e-015 -7.95139e-015 -0 -3.18055e-015 6.36111e-015 -0 -6.36111e-015 7.95139e-015 -0 -112.414 -15.6836 -161.105 -152.555 19.1683 110.773 0.642103 -17.4293 44.0985 -2.49662e-006 5.84757e-007 -5.90997e-006 112.422 -15.7041 161.095 152.591 19.1684 -110.811 -0.636147 -17.4327 -44.1008 -7.95139e-016 3.18055e-015 3.18055e-015 
-0.617656 53.3858 7.69097 2.53895e-007 -6.95055 -6.0701e-008 -0.645318 2.0988 -0.21043 -1.28421 4.19982 -0.397575 -1.28421 4.19982 -0.397575 7.53619e-006 32.9933 3.22514e-006 -6.38466e-007 -23.2954 3.77081e-007 10.7665 -6.30144 -17.7347 35.9686 -5.09138 21.1164 -82.3001 -42.8382 -59.7966 -11.8374 19.2119 14.173 6.14085e-006 -4.63004e-006 3.86372e-006 -3.18055e-015 -3.18055e-015 3.18055e-015 -3.53113e-031 -3.18055e-015 -6.36111e-015 6.14085e-006 -4.63004e-006 3.86372e-006 -0.0128367 0.00233454 7.66364e-005 1.82101e-006 -3.57052e-006 1.66972e-006 6.14085e-006 -4.63004e-006 3.86372e-006 -0.0160209 0.00301222 0.000865486 -2.30357e-006 8.99066e-007 -1.26103e-006 6.14085e-006 -4.63004e-006 3.86372e-006 -0.0126352 0.00314517 0.00283553 1.12285e-005 9.40209e-006 5.97689e-006 6.14085e-006 -4.63004e-006 3.86372e-006 -3.18055e-015 -3.18055e-015 3.18055e-015 -3.53113e-031 -3.18055e-015 -6.36111e-015 -12.4812 -6.40295 11.4965 -35.712 -7.51209 -16.936 79.2205 -43.5854 57.8235 15.1264 17.377 -13.398 1.9289e-006 3.3534e-006 1.50364e-006 1.41675e-006 1.8539e-006 1.9795e-006 3.34564e-006 2.84475e-006 3.48314e-006 1.9289e-006 3.3534e-006 1.50364e-006 0.0129147 0.00231144 -7.6167e-005 -1.01919e-006 4.77847e-006 4.32115e-006 1.9289e-006 3.3534e-006 1.50364e-006 0.0163253 0.00304804 -0.000880976 1.92814e-006 1.40312e-006 1.50378e-006 1.9289e-006 3.3534e-006 1.50364e-006 0.014591 0.00368952 -0.00326654 1.41723e-006 3.06734e-006 1.97946e-006 1.9289e-006 3.3534e-006 1.50364e-006 1.41675e-006 1.8539e-006 1.9795e-006 3.34564e-006 2.84475e-006 3.48314e-006 -112.845 -15.8922 -161.524 -152.563 19.1631 110.781 0.875497 -17.2379 43.855 -4.33495e-006 -5.193e-007 2.56005e-006 112.854 -15.9129 161.515 152.6 19.1631 -110.819 -0.869351 -17.2411 -43.8563 1.13157e-006 -8.29921e-007 -1.79078e-006 
-0.617668 53.2796 7.62646 -4.65756e-008 -6.60016 -3.8111e-007 -0.644521 1.88922 -0.212852 -1.28306 3.78069 -0.404742 -1.28306 3.7807 -0.404743 -1.87236e-005 33.3749 -9.42291e-006 2.19945e-007 -23.1769 -3.84935e-007 10.8311 -5.84987 -17.5257 35.7694 -5.04264 21.0615 -82.6536 -42.7561 -60.049 -11.9267 19.4602 14.1563 3.18055e-015 9.54166e-015 -3.18055e-015 -7.9405e-007 2.02499e-006 -2.73193e-006 -3.18055e-015 1.74931e-014 -3.18055e-015 3.18055e-015 9.54166e-015 -3.18055e-015 -0.0128426 0.00234549 8.92586e-005 -0 0 3.18055e-015 3.18055e-015 9.54166e-015 -3.18055e-015 -0.0160326 0.00298623 0.000847876 3.18055e-015 1.59028e-015 3.18055e-015 3.18055e-015 9.54166e-015 -3.18055e-015 -0.0126189 0.00314043 0.00283047 3.18055e-015 1.59028e-015 3.18055e-015 3.18055e-015 9.54166e-015 -3.18055e-015 -7.9405e-007 2.02499e-006 -2.73193e-006 -3.18055e-015 1.74931e-014 -3.18055e-015 -12.5581 -5.96333 11.2695 -35.5034 -7.47495 -16.8648 79.535 -43.5093 58.0525 15.2709 17.6152 -13.3614 7.06225e-031 6.36111e-015 -6.36111e-015 -3.18055e-015 -3.12921e-006 -3.18055e-015 -3.34732e-006 -4.02334e-006 -3.48153e-006 7.06225e-031 6.36111e-015 -6.36111e-015 0.01298 0.00232575 -9.15767e-005 -1.21759e-006 -1.15707e-006 1.17138e-006 7.06225e-031 6.36111e-015 -6.36111e-015 0.0163377 0.0030313 -0.000881059 -1.92931e-006 -2.17169e-006 -1.50281e-006 7.06225e-031 6.36111e-015 -6.36111e-015 0.0145057 0.00364747 -0.00323664 2.43525e-006 -6.5388e-007 -2.34273e-006 7.06225e-031 6.36111e-015 -6.36111e-015 -3.18055e-015 -3.12921e-006 -3.18055e-015 -3.34732e-006 -4.02334e-006 -3.48153e-006 -113.278 -16.098 -161.946 -152.572 19.1578 110.788 1.10968 -17.0481 43.6108 -5.56597e-015 7.95139e-016 -0 113.288 -16.119 161.938 152.609 19.1579 -110.826 -1.1034 -17.0513 -43.6113 2.74103e-006 -1.26052e-006 -2.67553e-006 
